<!-- icon666.com - MILLIONS vector ICONS FREE --><svg xmlns="http://www.w3.org/2000/svg" viewBox="0 0 64 64"><g id="Cloud"><path d="M13,52a12,12,0,0,1-1.8159-23.8618l.5425-.082.2221-.5015A10.9614,10.9614,0,0,1,24.5742,21.31l.8784.2138.3008-.8525A12.9932,12.9932,0,0,1,51,25l-.0176,1.02.874.1255A12.9932,12.9932,0,0,1,50,52Z" style="fill: rgb(152, 166, 185);" fill="#4294ff"></path><path d="M51.9985,25.1563C52,25.104,52,25.0522,52,25a13.9932,13.9932,0,0,0-27.1895-4.6616A11.8767,11.8767,0,0,0,22,20a12.0713,12.0713,0,0,0-10.9653,7.1494A13,13,0,0,0,13,53H50a13.9931,13.9931,0,0,0,1.9985-27.8437ZM50,51H13a10.9947,10.9947,0,0,1-2.6835-21.6582,12.309,12.309,0,0,0-.1563,4.623,1,1,0,1,0,1.9755-.3095,10.2091,10.2091,0,0,1,.5347-5.23A10.0555,10.0555,0,0,1,22,22a9.8909,9.8909,0,0,1,2.2976.275,14.2439,14.2439,0,0,0-.1116,4.9872,1,1,0,1,0,1.9766-.3066,12.204,12.204,0,0,1,.2744-5.1236A11.9936,11.9936,0,0,1,50,25l-.0012.0229A16.3421,16.3421,0,0,0,41.04,27.855a1,1,0,1,0,1.0986,1.6719C51.9366,23.0883,62,30.0252,62,39A12.0137,12.0137,0,0,1,50,51Z" style="" fill="#232328"></path></g></svg>